<svg width="30" height="30" viewBox="0 0 30 30" fill="none" xmlns="http://www.w3.org/2000/svg">
<path d="M18.17 27.1074C18.2175 27.2258 18.3 27.3268 18.4066 27.3969C18.5131 27.467 18.6386 27.5028 18.7661 27.4995C18.8935 27.4962 19.017 27.454 19.1198 27.3786C19.2226 27.3032 19.2999 27.1981 19.3412 27.0774L27.4662 3.32745C27.5063 3.21669 27.5139 3.09683 27.4883 2.98189C27.4626 2.86695 27.4048 2.76169 27.3215 2.67842C27.2383 2.59515 27.133 2.53732 27.0181 2.51169C26.9031 2.48606 26.7833 2.49369 26.6725 2.5337L2.9225 10.6587C2.80187 10.7001 2.69678 10.7773 2.62134 10.8802C2.5459 10.983 2.50371 11.1064 2.50045 11.2339C2.49718 11.3614 2.53299 11.4868 2.60307 11.5934C2.67315 11.6999 2.77415 11.7825 2.8925 11.8299L12.805 15.8049C13.1184 15.9304 13.4031 16.118 13.642 16.3565C13.8808 16.5949 14.069 16.8793 14.195 17.1924L18.17 27.1074Z" stroke="white" stroke-width="2" stroke-linecap="round" stroke-linejoin="round"/>
<path d="M27.3175 2.68372L13.6425 16.3575" stroke="white" stroke-width="2" stroke-linecap="round" stroke-linejoin="round"/>
</svg>
